<?xml version="1.0" encoding="UTF-8"?>
<svg width="646px" height="71px" viewBox="0 0 646 71" version="1.1" xmlns="http://www.w3.org/2000/svg" xmlns:xlink="http://www.w3.org/1999/xlink">
    <!-- Generator: Sketch 53.2 (72643) - https://sketchapp.com -->
    <title>logo blanco calcula</title>
    <desc>Created with Sketch.</desc>
    <defs>
        <polygon id="path-1" points="0.680529642 0.754555641 20.7782345 0.754555641 20.7782345 23.6176906 0.680529642 23.6176906"></polygon>
    </defs>
    <g id="Page-1" stroke="none" stroke-width="1" fill="none" fill-rule="evenodd">
        <g id="Web-short-form" transform="translate(-90.000000, -64.000000)">
            <g id="logo-blanco-calcula" transform="translate(90.285316, 64.405488)">
                <g id="Group-21" transform="translate(85.143324, 16.895710)">
                    <path d="M5.59228913,30.0883839 C3.84567187,29.1259043 2.47696937,27.7982488 1.48618162,26.1068325 C0.493978463,24.4140009 -8.52651283e-14,22.4961189 -8.52651283e-14,20.3489403 C-8.52651283e-14,18.2045925 0.493978463,16.2838797 1.48476621,14.5924635 C2.47555396,12.8996319 3.84425646,11.5804687 5.58945831,10.6307279 C7.33607557,9.68098709 9.32472812,9.20540897 11.5540006,9.20540897 C13.5341606,9.20540897 15.3020091,9.60455489 16.8561304,10.4028467 C18.4116672,11.1997232 19.6147666,12.356114 20.4682595,13.867773 L17.4562647,15.8083016 C16.7683749,14.7637282 15.9148821,13.9781751 14.8972015,13.4558884 C13.8781055,12.9336017 12.7514383,12.6717507 11.5129536,12.6717507 C10.081973,12.6717507 8.79536438,12.9888028 7.65454306,13.6214915 C6.51089092,14.2541802 5.61776653,15.1557971 4.97233908,16.3249266 C4.32408081,17.4954716 4.0027825,18.8372813 4.0027825,20.3489403 C4.0027825,21.890323 4.32549623,23.2448714 4.97233908,24.4140009 C5.61918194,25.5831304 6.51230633,26.4847473 7.65595847,27.1160206 C8.79677979,27.7501248 10.0833885,28.0657615 11.514369,28.0657615 C12.7528537,28.064346 13.8795209,27.8039104 14.8986169,27.2816237 C15.9162975,26.7579216 16.7683749,25.9751993 17.4576801,24.9277951 L20.4696749,26.8258614 C19.616182,28.3403512 18.4130826,29.5038191 16.8589612,30.3148496 C15.3034245,31.1258802 13.535576,31.5321032 11.555416,31.5335186 C9.32755894,31.5335186 7.33890639,31.0522788 5.59228913,30.0883839" id="Fill-1" fill="#FFFFFF"></path>
                    <path d="M36.5641726,27.4649195 C37.663947,26.7897684 38.4636542,25.8357813 38.9562173,24.5972966 L38.9562173,21.5428395 L32.8501339,21.5428395 C29.4927789,21.5428395 27.8141014,22.6709222 27.8141014,24.9270874 C27.8141014,26.0282772 28.2415555,26.8959242 29.0950484,27.5271975 C29.9471258,28.1598863 31.1304095,28.4769384 32.6434839,28.4769384 C34.1565584,28.475523 35.4643982,28.1400705 36.5641726,27.4649195 M40.5032616,11.4311429 C42.1139994,12.9173245 42.9179529,15.1310274 42.9193683,18.0750824 L42.9193683,31.2808677 L39.1642827,31.2822831 L39.1642827,28.3934291 C38.5032858,29.4111097 37.560622,30.1895858 36.3377068,30.7260266 C35.1133762,31.2624674 33.6611645,31.52998 31.9839024,31.52998 C29.5338258,31.52998 27.5734815,30.9397536 26.101454,29.75647 C24.6294265,28.5731863 23.8948281,27.0204804 23.8948281,25.0926905 C23.8948281,23.1677315 24.5954566,21.6206872 25.998129,20.4501422 C27.4008013,19.2810127 29.6314892,18.6964479 32.6845309,18.6964479 L38.9562173,18.6950325 L38.9562173,17.9108947 C38.9562173,16.2053244 38.4622388,14.8989 37.4714511,13.9902061 C36.4792479,13.0829276 35.0213745,12.6285806 33.0964155,12.6285806 C31.8027298,12.629996 30.5373523,12.8423077 29.2988676,13.2697618 C28.0617983,13.6958006 27.0158095,14.2662112 26.1623167,14.9824092 L24.5119473,12.0114614 C25.64003,11.1027675 26.9875013,10.4078007 28.5557768,9.92514549 C30.1240522,9.44532114 31.7885756,9.20470126 33.549347,9.20328585 C36.5754959,9.20328585 38.8939392,9.94637666 40.5032616,11.4311429" id="Fill-3" fill="#FFFFFF"></path>
                    <polygon id="Fill-5" fill="#FFFFFF" points="50.2635117 0.659156935 54.2252473 0.657741524 54.2280781 31.28016 50.2663425 31.2815754"></polygon>
                    <path d="M65.349246,30.0828638 C63.6026287,29.1189688 62.2339262,27.7927287 61.2431384,26.1013124 C60.2509353,24.4084808 59.7569568,22.4905988 59.7569568,20.3434202 C59.7569568,18.1990724 60.2509353,16.2783596 61.241723,14.5869434 C62.2325108,12.8941118 63.6012133,11.5735332 65.3464151,10.6237924 C67.0930324,9.67546698 69.0816849,9.19988886 71.3109574,9.19988886 C73.2911175,9.19988886 75.0589659,9.59761937 76.6130872,10.3959112 C78.168624,11.1942031 79.3717234,12.3505939 80.2252163,13.8622529 L77.2132215,15.8013661 C76.5253318,14.7567927 75.6718389,13.972655 74.6541583,13.4503683 C73.6350623,12.9280816 72.5083951,12.6662306 71.2699105,12.6662306 C69.8389299,12.6662306 68.5523212,12.9832826 67.4114999,13.6159714 C66.2678477,14.2486601 65.3747234,15.150277 64.7292959,16.3194065 C64.0810376,17.4899515 63.7597393,18.8303458 63.7597393,20.3434202 C63.7597393,21.8848029 64.082453,23.2393513 64.7292959,24.4084808 C65.3761388,25.5776103 66.2692631,26.4792272 67.4129153,27.1105005 C68.5537366,27.7446047 69.8403453,28.0588259 71.2713259,28.0588259 C72.5098105,28.0588259 73.6364778,27.7983903 74.6555737,27.2761036 C75.6732543,26.7524015 76.5253318,25.9682638 77.2146369,24.922275 L80.2266317,26.8203413 C79.3731388,28.3348311 78.1700394,29.4968836 76.6159181,30.3079141 C75.0603813,31.1189447 73.2925329,31.5265831 71.3123728,31.5265831 C69.0845158,31.5265831 67.0958632,31.0467587 65.349246,30.0828638" id="Fill-7" fill="#FFFFFF"></path>
                    <path d="M105.729933,9.40328343 L105.731348,31.2756307 L101.976263,31.2756307 L101.976263,27.9734767 C101.177971,29.1029747 100.124905,29.9762833 98.8184807,30.5962334 C97.5106409,31.2133526 96.0881528,31.5233276 94.5481855,31.5233276 C91.6310233,31.524743 89.3338111,30.7207895 87.6551336,29.1100517 C85.9764561,27.5007294 85.1371173,25.1285004 85.1371173,21.9919495 L85.1357019,9.40469885 L89.0974375,9.40469885 L89.0988529,21.5376025 C89.0988529,23.6550575 89.6084009,25.2587182 90.6260814,26.3457539 C91.6451774,27.4313742 93.1030508,27.9748921 95.0011171,27.9748921 C97.0916792,27.9748921 98.7420485,27.3422033 99.9536404,26.0754104 C101.163817,24.8114483 101.768197,23.0209533 101.768197,20.709587 L101.766782,9.40328343 L105.729933,9.40328343 Z" id="Fill-9" fill="#FFFFFF"></path>
                    <polygon id="Fill-11" fill="#FFFFFF" points="113.279736 0.65222142 117.241471 0.65222142 117.244302 31.2746399 113.282566 31.2746399"></polygon>
                    <path d="M135.774298,27.4538793 C136.874072,26.7801436 137.673779,25.8247411 138.166342,24.5862564 L138.166342,21.5317993 L132.060259,21.5332148 C128.702904,21.5332148 127.024226,22.6612974 127.024226,24.9174626 C127.024226,26.0186524 127.45168,26.8862994 128.305173,27.5175727 C129.157251,28.1502615 130.340534,28.4658982 131.853609,28.4658982 C133.366683,28.4658982 134.674523,28.1304457 135.774298,27.4538793 M139.713387,11.4215181 C141.324124,12.9076997 142.128078,15.1214026 142.129493,18.0654576 L142.129493,31.2712429 L138.374408,31.2712429 L138.374408,28.3823889 C137.713411,29.4014849 136.770747,30.1785456 135.547832,30.7149864 C134.323501,31.2528426 132.871289,31.5203553 131.194027,31.5203553 C128.743951,31.5203553 126.783606,30.9301288 125.311579,29.7468452 C123.839551,28.5635615 123.104953,27.0094402 123.104953,25.0830657 C123.104953,23.1581067 123.805582,21.6096469 125.208254,20.4405174 C126.610926,19.2713879 128.841614,18.6854077 131.894656,18.6854077 L138.166342,18.6854077 L138.166342,17.9012699 C138.166342,16.1956996 137.672364,14.8878598 136.681576,13.9791659 C135.689373,13.0718874 134.231499,12.6189558 132.30654,12.6189558 C131.012855,12.6189558 129.747477,12.8326829 128.508993,13.2587216 C127.271923,13.6861758 126.225934,14.2565864 125.372442,14.9727844 L123.722072,12.0004212 C124.850155,11.0917273 126.197626,10.3981759 127.765902,9.9155207 C129.334177,9.43569635 130.998701,9.19366105 132.759472,9.19366105 C135.785621,9.19366105 138.104064,9.93533645 139.713387,11.4215181" id="Fill-13" fill="#FFFFFF"></path>
                    <path d="M161.774125,29.9902959 C161.196637,30.4856898 160.480439,30.8636045 159.626946,31.1254556 C158.774869,31.3858912 157.894483,31.5175244 156.985789,31.5175244 C154.786241,31.5175244 153.079255,30.927298 151.869078,29.7440144 C150.657486,28.5607307 150.053106,26.8693145 150.053106,24.6669349 L150.051691,12.6585874 L146.337652,12.6585874 L146.337652,9.39889566 L150.051691,9.39748025 L150.051691,4.61056001 L154.013426,4.61056001 L154.013426,9.39748025 L160.285113,9.39748025 L160.286528,12.6571719 L154.013426,12.6585874 L154.014842,24.5027472 C154.014842,25.6860308 154.310662,26.5947247 154.902304,27.2259981 C155.493946,27.8586868 156.338946,28.1743235 157.440136,28.1743235 C158.650313,28.1743235 159.682147,27.831794 160.53564,27.1424888 L161.774125,29.9902959 Z" id="Fill-15" fill="#FFFFFF"></path>
                    <path d="M186.946079,9.39493251 L186.947494,31.2672798 L183.192408,31.2672798 L183.192408,27.9651257 C182.394117,29.0946238 181.341051,29.9679324 180.034626,30.5878824 C178.726786,31.2050017 177.304298,31.5149767 175.764331,31.5163921 C172.847169,31.5163921 170.549957,30.7124386 168.871279,29.1031162 C167.192602,27.4923784 166.353263,25.1201495 166.353263,21.9835986 L166.351847,9.39634792 L170.313583,9.39634792 L170.314998,21.5292516 C170.314998,23.6467066 170.824546,25.2503673 171.842227,26.337403 C172.861323,27.4230233 174.319196,27.9665411 176.217263,27.9665411 C178.307825,27.9665411 179.958194,27.3338524 181.169786,26.0670595 C182.379962,24.8030974 182.984343,23.0140178 182.984343,20.7026515 L182.982928,9.39493251 L186.946079,9.39493251 Z" id="Fill-17" fill="#FFFFFF"></path>
                    <path d="M194.497155,9.3935171 L198.458891,9.3935171 L198.460306,31.2658643 L194.49857,31.2658643 L194.497155,9.3935171 Z M194.558018,4.44099377 C194.04847,3.94559989 193.793696,3.34121937 193.793696,2.62643678 C193.793696,1.91023878 194.04847,1.29736579 194.558018,0.789233212 C195.06615,0.281100638 195.705916,0.0263266459 196.4759,0.0263266459 C197.245883,0.0249112348 197.887065,0.266946528 198.395197,0.748186291 C198.904745,1.22801064 199.159519,1.82672953 199.159519,2.54151211 C199.159519,3.28601834 198.904745,3.91163003 198.395197,4.4197626 C197.887065,4.92931059 197.245883,5.18266917 196.4759,5.18408458 C195.705916,5.18408458 195.06615,4.93780305 194.558018,4.44099377 L194.558018,4.44099377 Z" id="Fill-19" fill="#FFFFFF"></path>
                    <path d="M224.314771,11.5981614 C225.950986,13.2074838 226.769094,15.566974 226.769094,18.6752167 L226.770509,31.2638828 L222.810189,31.2638828 L222.808773,19.1295637 C222.808773,17.0121087 222.29781,15.415525 221.280129,14.3426434 C220.262449,13.2711773 218.804575,12.7347365 216.906509,12.7347365 C214.760746,12.7347365 213.06933,13.3603482 211.830845,14.6115715 C210.59236,15.8642103 209.97241,17.660367 209.97241,19.9986261 L209.973826,31.2652982 L206.01209,31.2652982 L206.010675,9.39153552 L209.808223,9.39153552 L209.808223,12.6936895 C210.605099,11.5656069 211.685058,10.6979599 213.048099,10.0935794 C214.409724,9.48919889 215.956768,9.18488551 217.689232,9.18488551 C220.469099,9.18488551 222.67714,9.98883899 224.314771,11.5981614" id="Fill-21" fill="#FFFFFF"></path>
                    <path d="M247.363608,27.072426 C248.49169,26.4255831 249.372076,25.5168892 250.004765,24.3477597 C250.637453,23.1786301 250.954506,21.8382358 250.95309,20.323746 C250.95309,18.812087 250.637453,17.4702773 250.003349,16.3011477 C249.370661,15.1306028 248.490275,14.2318168 247.362192,13.5977126 C246.23411,12.9650238 244.982886,12.6493872 243.607107,12.6493872 C242.203019,12.6493872 240.946134,12.9650238 239.832205,13.5977126 C238.716861,14.2318168 237.836476,15.1320182 237.191048,16.3025631 C236.54279,17.4716927 236.220076,18.8135024 236.220076,20.3251614 C236.221492,21.8396512 236.544205,23.1800455 237.191048,24.3491751 C237.837891,25.5183046 238.718277,26.4269985 239.833621,27.072426 C240.947549,27.7192688 242.204434,28.043398 243.608522,28.043398 C244.984302,28.0419825 246.235525,27.7192688 247.363608,27.072426 L247.363608,27.072426 Z M254.872363,0.638208851 L254.875194,31.2606273 L251.079062,31.2606273 L251.079062,27.7942856 C250.197261,29.0044621 249.083332,29.9273101 247.735861,30.5599988 C246.388389,31.1926876 244.902208,31.5083243 243.278731,31.5097397 C241.159861,31.5097397 239.260379,31.042654 237.583117,30.1070673 C235.90444,29.1714806 234.592354,27.8579791 233.642613,26.1651475 C232.692872,24.4737312 232.218709,22.527541 232.217294,20.3251614 C232.217294,18.1256126 232.691457,16.1864994 233.641197,14.5064065 C234.590938,12.8291444 235.903024,11.52272 237.581702,10.5871333 C239.258964,9.65013112 241.158446,9.18163006 243.277316,9.18163006 C244.845591,9.18163006 246.289311,9.47745097 247.611305,10.0690928 C248.930468,10.6607346 250.031658,11.5340433 250.912043,12.6904341 L250.910628,0.638208851 L254.872363,0.638208851 Z" id="Fill-23" fill="#FFFFFF"></path>
                    <path d="M266.572576,14.2563034 C265.29446,15.4112788 264.542876,16.9257686 264.323488,18.7955267 L278.355873,18.7941113 C278.135069,16.951246 277.386316,15.4452487 276.105369,14.2761191 C274.827253,13.1069896 273.237747,12.5210094 271.33968,12.5224248 C269.441614,12.5224248 267.852108,13.1013279 266.572576,14.2563034 M282.071327,21.6419183 L264.324903,21.6447491 C264.5726,23.5697082 265.419016,25.1167525 266.862735,26.285882 C268.30787,27.4550116 270.102611,28.0395764 272.24979,28.0381609 C274.862639,28.0381609 276.967355,27.1591907 278.563938,25.3970039 L280.750749,27.9560671 C279.759961,29.1110425 278.528553,29.9928436 277.056526,30.5986396 C275.584498,31.2044355 273.941206,31.5059181 272.125234,31.5059181 C269.813867,31.5073335 267.764352,31.0331708 265.976688,30.0834299 C264.186193,29.1351045 262.804752,27.8074489 261.828118,26.1004632 C260.851484,24.3948928 260.363168,22.4699338 260.361752,20.3227552 C260.361752,18.2053002 260.835915,16.2916645 261.785656,14.5860941 C262.735397,12.8805238 264.041821,11.5542836 265.706344,10.6031274 C267.370868,9.65480198 269.249118,9.17922386 271.33968,9.17922386 C273.430243,9.17922386 275.294339,9.65338657 276.93197,10.6031274 C278.5696,11.5514528 279.847716,12.8791084 280.769149,14.5846787 C281.691997,16.2902491 282.152006,18.2435163 282.152006,20.4444806 C282.152006,20.7487939 282.123697,21.1465244 282.071327,21.6419183" id="Fill-25" fill="#FFFFFF"></path>
                    <path d="M321.542754,11.5678716 C323.153492,13.1644553 323.957445,15.5296072 323.957445,18.6661581 L323.958861,31.2534087 L319.997125,31.2534087 L319.99571,19.120505 C319.99571,17.0016347 319.507393,15.4064664 318.530759,14.3335848 C317.554126,13.2607032 316.157115,12.7242624 314.341143,12.7242624 C312.332674,12.7242624 310.737506,13.3512895 309.554222,14.6025129 C308.370939,15.8537363 307.779297,17.6498929 307.779297,19.988152 L307.780712,31.2548241 L303.820392,31.2548241 L303.818977,19.1219205 C303.818977,17.0044655 303.329244,15.4078818 302.352611,14.3350002 C301.375977,13.2621186 299.980382,12.7256778 298.162994,12.7256778 C296.154526,12.7256778 294.560773,13.3527049 293.377489,14.6039283 C292.194206,15.8551517 291.602564,17.6527238 291.602564,19.9895674 L291.603979,31.2562395 L287.642244,31.2562395 L287.640828,9.3838923 L291.436961,9.3838923 L291.436961,12.6449994 C292.235252,11.5155014 293.279826,10.6549314 294.573512,10.064705 C295.865782,9.4730632 297.337809,9.17724229 298.989594,9.17724229 C300.695164,9.17724229 302.208239,9.52118718 303.528817,10.2076615 C304.849396,10.8955513 305.867076,11.8990778 306.583274,13.2196563 C307.408459,11.9542788 308.556358,10.9634911 310.028385,10.2487085 C311.500413,9.53392588 313.157859,9.17582688 315.00214,9.17582688 C317.752283,9.17582688 319.933432,9.97270331 321.542754,11.5678716" id="Fill-27" fill="#FFFFFF"></path>
                    <path d="M349.566195,11.5857058 C351.20241,13.1950281 352.020518,15.5545184 352.020518,18.6627611 L352.021933,31.2514271 L348.061613,31.2514271 L348.060197,19.1171081 C348.060197,16.9982377 347.549234,15.4030694 346.531553,14.3301878 C345.513873,13.2587216 344.055999,12.7222808 342.157933,12.7222808 C340.01217,12.7222808 338.320754,13.3478925 337.082269,14.5991159 C335.843784,15.8517547 335.223834,17.646496 335.223834,19.9861705 L335.22525,31.2528426 L331.263514,31.2528426 L331.262099,9.3790799 L335.059647,9.3790799 L335.059647,12.6798185 C335.856523,11.5531513 336.936482,10.6855043 338.299523,10.0811238 C339.661148,9.47674327 341.208192,9.17242989 342.940656,9.17242989 C345.720523,9.17242989 347.928564,9.97638338 349.566195,11.5857058" id="Fill-29" fill="#FFFFFF"></path>
                    <path d="M359.366359,9.37695679 L363.328095,9.37695679 L363.32951,31.249304 L359.367775,31.249304 L359.366359,9.37695679 Z M359.427222,4.42443346 C358.917674,3.92903959 358.6629,3.32465906 358.6629,2.60987647 C358.6629,1.89367847 358.917674,1.28080548 359.427222,0.772672902 C359.935355,0.264540329 360.57512,0.0083509253 361.345104,0.0083509253 C362.115088,0.0083509253 362.756269,0.250386218 363.264401,0.731625981 C363.773949,1.21145033 364.028723,1.81016922 364.028723,2.52495181 C364.028723,3.26945803 363.773949,3.89506972 363.264401,4.40320229 C362.756269,4.91275028 362.115088,5.16610886 361.345104,5.16610886 C360.57512,5.16610886 359.935355,4.92124274 359.427222,4.42443346 L359.427222,4.42443346 Z" id="Fill-31" fill="#FFFFFF"></path>
                    <polygon id="Fill-33" fill="#FFFFFF" points="387.100915 27.9873477 387.100915 31.2470394 368.777003 31.2484548 368.777003 28.6893916 381.692629 12.6343838 369.023285 12.6357992 369.023285 9.37610754 386.769708 9.37469213 386.769708 11.9748023 373.854082 27.9887631"></polygon>
                    <path d="M403.360166,27.4275526 C404.459941,26.7524015 405.258232,25.7984145 405.753626,24.5599298 L405.753626,21.5054727 L399.646128,21.5054727 C396.288773,21.5054727 394.610095,22.6335553 394.610095,24.8897206 C394.610095,25.9909104 395.037549,26.8585574 395.891042,27.4898307 C396.74312,28.1225194 397.926403,28.4395715 399.439478,28.4395715 C400.952552,28.4395715 402.260392,28.1027037 403.360166,27.4275526 M407.299255,11.3951914 C408.909993,12.8799576 409.713947,15.0936606 409.713947,18.0377156 L409.715362,31.2435008 L405.960276,31.2449163 L405.960276,28.3560623 C405.299279,29.3737428 404.356616,30.1522189 403.1337,30.6886597 C401.90937,31.2251005 400.457158,31.4926132 398.779896,31.4926132 C396.329819,31.4926132 394.369475,30.9023868 392.897448,29.7191031 C391.42542,28.5358195 390.690822,26.9831135 390.690822,25.0553237 C390.690822,23.1303646 391.39145,21.5833203 392.794123,20.4127753 C394.196795,19.2450612 396.426067,18.659081 399.479109,18.659081 L405.752211,18.6576656 L405.752211,17.8735279 C405.752211,16.1679576 405.256817,14.8615331 404.267445,13.9528392 C403.275242,13.0455607 401.817368,12.5912138 399.892409,12.5926292 C398.598723,12.5926292 397.333346,12.8049409 396.094861,13.232395 C394.856377,13.6584337 393.811803,14.2302598 392.95831,14.9450424 L391.307941,11.9740946 C392.436024,11.0654007 393.783495,10.3704338 395.353186,9.88777864 C396.920046,9.40795429 398.584569,9.16733441 400.345341,9.16733441 C403.372905,9.165919 405.689933,9.90900981 407.299255,11.3951914" id="Fill-35" fill="#FFFFFF"></path>
                    <path d="M420.755568,30.0469123 C419.007536,29.0830174 417.638833,27.7567772 416.649461,26.065361 C415.657258,24.3725294 415.163279,22.4532319 415.161864,20.3074688 C415.161864,18.1617056 415.655842,16.2424082 416.648045,14.5509919 C417.637418,12.8581603 419.00612,11.5375818 420.754153,10.587841 C422.499355,9.63810013 424.489423,9.16393742 426.71728,9.16393742 C428.69744,9.16252201 430.465288,9.56166793 432.020825,10.3599598 C433.574946,11.1582516 434.778046,12.3146425 435.631539,13.8263015 L432.618128,15.7654146 C431.931654,14.7208413 431.076746,13.9367035 430.059065,13.4144169 C429.041385,12.8921302 427.914717,12.6302791 426.676233,12.6302791 C425.245252,12.6302791 423.958644,12.9473312 422.816407,13.58002 C421.67417,14.2127087 420.781046,15.1143256 420.135618,16.2834551 C419.48736,17.4540001 419.164646,18.7943943 419.164646,20.3074688 C419.166062,21.8488514 419.488775,23.2033998 420.137034,24.3725294 C420.782461,25.5416589 421.675585,26.4432757 422.817822,27.0745491 C423.960059,27.7086532 425.246668,28.0228745 426.677648,28.0228745 C427.916133,28.0228745 429.0428,27.7624389 430.060481,27.2401522 C431.078161,26.7164501 431.931654,25.9323124 432.619544,24.8863236 L435.632954,26.7843898 C434.779461,28.2988797 433.576362,29.4609321 432.02224,30.2719627 C430.466704,31.0829932 428.698855,31.4906316 426.718695,31.4906316 C424.490838,31.4906316 422.50077,31.0093919 420.755568,30.0469123" id="Fill-37" fill="#FFFFFF"></path>
                    <path d="M440.74825,9.36860586 L444.709985,9.36860586 L444.711401,31.2409531 L440.749665,31.2409531 L440.74825,9.36860586 Z M440.809112,4.41608253 C440.299564,3.92068866 440.04479,3.31630813 440.04479,2.60152554 C440.04479,1.88532754 440.299564,1.27245455 440.809112,0.764321977 C441.317245,0.256189403 441.957011,0.00141541107 442.726994,1.42108547e-14 C443.496978,1.42108547e-14 444.138159,0.242035293 444.646292,0.723275056 C445.15584,1.20309941 445.410614,1.80181829 445.410614,2.51660088 C445.410614,3.2611071 445.15584,3.88671879 444.646292,4.39485137 C444.138159,4.90439935 443.496978,5.15775793 442.726994,5.15775793 C441.957011,5.15917334 441.317245,4.91289182 440.809112,4.41608253 L440.809112,4.41608253 Z" id="Fill-39" fill="#FFFFFF"></path>
                    <path d="M465.407541,27.0497794 C466.522885,26.4029365 467.394778,25.495658 468.027467,24.3251131 C468.661571,23.1559835 468.977208,21.8155893 468.975793,20.3025148 C468.975793,18.7894404 468.660156,17.4476307 468.027467,16.2785012 C467.393363,15.1093716 466.52147,14.2091702 465.406126,13.5764814 C464.292197,12.9437927 463.033897,12.6267406 461.629809,12.6267406 C460.227137,12.6267406 458.968836,12.9437927 457.854908,13.5764814 C456.739564,14.2091702 455.859178,15.110787 455.213751,16.2799166 C454.566908,17.4490461 454.242779,18.7908558 454.242779,20.3039302 C454.244194,21.8170047 454.568323,23.157399 455.215166,24.3265285 C455.860594,25.4970734 456.740979,26.4043519 457.856323,27.0497794 C458.970252,27.6966222 460.228552,28.0207514 461.631225,28.0207514 C463.035312,28.019336 464.293613,27.6966222 465.407541,27.0497794 L465.407541,27.0497794 Z M455.771423,30.0433738 C454.03896,29.0808943 452.682996,27.7518233 451.706362,26.0604071 C450.729728,24.3689908 450.241412,22.4496934 450.239996,20.3039302 C450.239996,18.1581671 450.728313,16.2388696 451.704947,14.546038 C452.68158,12.8546218 454.037544,11.5340433 455.770007,10.5843024 C457.503886,9.63597701 459.457153,9.16039889 461.629809,9.16039889 C463.803881,9.16039889 465.750071,9.6345616 467.469795,10.5843024 C469.18952,11.5326278 470.536991,12.8532064 471.513625,14.5446226 C472.491674,16.2374542 472.97999,18.1553362 472.97999,20.3025148 C472.981406,22.4468626 472.493089,24.3675754 471.51504,26.0589916 C470.538406,27.7504079 469.190935,29.0794789 467.471211,30.0419584 C465.751486,31.0044379 463.805296,31.4856777 461.631225,31.4870931 C459.458569,31.4870931 457.505301,31.0058533 455.771423,30.0433738 L455.771423,30.0433738 Z" id="Fill-41" fill="#FFFFFF"></path>
                    <path d="M496.771777,11.5705609 C498.407992,13.1798832 499.226099,15.5393735 499.226099,18.6476162 L499.227515,31.2362822 L495.267195,31.2362822 L495.265779,19.1019632 C495.265779,16.9845082 494.754816,15.3879245 493.737135,14.3150429 C492.719455,13.2435767 491.261581,12.707136 489.363515,12.707136 C487.217752,12.707136 485.526336,13.3327476 484.287851,14.583971 C483.049366,15.8380252 482.429416,17.6327665 482.429416,19.9710256 L482.430832,31.2376977 L478.469096,31.2376977 L478.467681,9.36393501 L482.265229,9.36393501 L482.265229,12.666089 C483.062105,11.5394218 484.142064,10.6703594 485.505105,10.0659789 C486.86673,9.46159837 488.413774,9.15728499 490.146237,9.15728499 C492.926105,9.15728499 495.134146,9.96123848 496.771777,11.5705609" id="Fill-43" fill="#FFFFFF"></path>
                    <path d="M505.376202,30.409116 C504.606218,29.6391324 504.221227,28.6752375 504.221227,27.520262 C504.221227,26.3383938 504.606218,25.3815759 505.376202,24.6526392 C506.146186,23.9237025 507.095927,23.5585264 508.224009,23.5585264 C509.352092,23.5585264 510.300417,23.9237025 511.070401,24.6526392 C511.840384,25.3801605 512.226792,26.3369784 512.226792,27.520262 C512.226792,28.6752375 511.840384,29.6391324 511.070401,30.409116 C510.300417,31.1805151 509.352092,31.5640915 508.224009,31.5640915 C507.095927,31.5640915 506.146186,31.1805151 505.376202,30.409116" id="Fill-45" fill="#FFFFFF"></path>
                    <path d="M522.873938,14.8077475 C521.883151,15.6329322 521.277355,16.7624302 521.057966,18.1919954 L531.993432,18.19058 C531.774043,16.7864922 531.168247,15.666902 530.178875,14.8289787 C529.188087,13.9896399 527.976495,13.5692628 526.54693,13.5692628 C525.087641,13.5692628 523.864726,13.9825629 522.873938,14.8077475 M537.939574,21.9456655 L521.141475,21.9470809 C521.444373,23.3242759 522.159156,24.4098962 523.288654,25.208188 C524.415321,26.0050645 525.819409,26.402795 527.498086,26.402795 C528.653062,26.402795 529.677819,26.2315303 530.570944,25.8875854 C531.465484,25.5436405 532.297745,25.0001226 533.069144,24.2570318 L536.494439,27.9724859 C534.403877,30.3645306 531.348004,31.5619683 527.331068,31.5633837 C524.828621,31.5633837 522.613503,31.0750669 520.688544,30.0984333 C518.762169,29.1217997 517.275988,27.7658358 516.231414,26.0347881 C515.18401,24.3009096 514.661723,22.3334882 514.660308,20.132524 C514.660308,17.959868 515.178348,15.9995236 516.208768,14.251491 C517.240602,12.5034583 518.657429,11.1418328 520.459247,10.1651992 C522.261065,9.18856557 524.276611,8.70024876 526.504468,8.70024876 C528.678539,8.70024876 530.645961,9.16874982 532.406732,10.1029211 C534.167503,11.0370924 535.55036,12.3789021 536.553886,14.1269348 C537.558828,15.8735521 538.059884,17.9018361 538.059884,20.211787 C538.059884,20.2952962 538.018837,20.8727839 537.939574,21.9456655" id="Fill-47" fill="#FFFFFF"></path>
                    <g id="Group-51" transform="translate(539.527523, 7.942155)">
                        <mask id="mask-2" fill="white">
                            <use xlink:href="#path-1"></use>
                        </mask>
                        <g id="Clip-50"></g>
                        <path d="M4.89137757,22.9382933 C3.12919079,22.4853618 1.72651842,21.9135357 0.680529642,21.2256459 L2.82770823,16.6029134 C3.81708057,17.2370175 5.01451833,17.7522272 6.4171907,18.1499577 C7.81986307,18.5491036 9.19564263,18.7486766 10.5445294,18.7486766 C13.2677803,18.7472611 14.6308211,18.0735255 14.6308211,16.7260541 C14.6308211,16.0933654 14.258568,15.6390184 13.5168926,15.3630133 C12.7723864,15.0884235 11.6315651,14.8562961 10.0915978,14.6623848 C8.27562544,14.3877951 6.7752897,14.070743 5.59200605,13.712644 C4.4087224,13.3573758 3.38396478,12.7232716 2.5163178,11.8174086 C1.65008622,10.9087146 1.21555503,9.61502893 1.21555503,7.9363514 C1.21555503,6.53367903 1.621778,5.28811729 2.43422396,4.202497 C3.2452545,3.1154613 4.42853815,2.26904548 5.9826595,1.66324955 C7.53678086,1.05886902 9.37398442,0.754555641 11.4928548,0.754555641 C13.0597148,0.754555641 14.6223287,0.92582038 16.17645,1.26976527 C17.7305714,1.61512557 19.0157646,2.08928828 20.0348606,2.6936688 L17.8890974,7.27535443 C15.9358301,6.17416462 13.8042211,5.62498513 11.4928548,5.62640054 C10.1156598,5.62640054 9.08524057,5.81748103 8.39735079,6.20247284 C7.70946101,6.58746465 7.36551612,7.08427394 7.36551612,7.68865447 C7.36551612,8.37654424 7.73776923,8.85919942 8.47944463,9.13237376 C9.22395085,9.40837891 10.4058191,9.66881455 12.0292956,9.91651149 C13.8438526,10.2194095 15.3300342,10.5421232 16.4850096,10.8860681 C17.6414005,11.2314284 18.6463423,11.8556247 19.4984198,12.7643186 C20.3533281,13.6715971 20.7793668,14.9369745 20.7793668,16.560451 C20.7793668,17.9362306 20.3674822,19.1605612 19.5422975,20.2334428 C18.7171129,21.3063244 17.5125981,22.1400015 15.9301685,22.7316433 C14.3477389,23.3218697 12.4694884,23.6176906 10.2968324,23.6176906 C8.45396723,23.6176906 6.65073353,23.3912249 4.89137757,22.9382933" id="Fill-49" fill="#FFFFFF" mask="url(#mask-2)"></path>
                    </g>
                </g>
                <path d="M68.9850012,36.7769724 L36.6647645,36.7803319 L36.668124,69.0988888 C36.668124,69.8984539 36.0197372,70.5468408 35.220172,70.5468408 C34.4222867,70.5468408 33.7738998,69.9001337 33.7738998,69.0988888 L33.7705403,36.7803319 L1.45030364,36.7836914 C0.652418269,36.7836914 0.00403142082,36.1353046 0.00403142082,35.3357394 C0.00403142082,34.5361743 0.652418269,33.8894672 1.45030364,33.8894672 L33.7705403,33.8861077 L33.7671808,1.56587104 C33.7671808,0.766305908 34.4155676,0.117919059 35.213453,0.117919059 C36.0130181,0.117919059 36.661405,0.766305908 36.661405,1.56587104 L36.6647645,33.8861077 L68.9833214,33.8827482 C69.7828866,33.8827482 70.4312734,34.5294553 70.4312734,35.3290204 C70.4312734,36.1285855 69.7828866,36.7769724 68.9850012,36.7769724 Z" id="Fill-52" fill="#FFFFFF"></path>
                <path d="M19.7793264,24.7818157 L19.7793264,19.8970775 L24.6640646,19.8970775 C25.4636297,19.8970775 26.1120166,19.2503704 26.1103368,18.4508052 C26.1103368,17.6495604 25.46195,17.0028533 24.6640646,17.0028533 L19.7793264,17.0028533 L19.7793264,12.1197948 C19.7793264,11.3202297 19.1309395,10.6735226 18.3313744,10.6735226 C17.5318093,10.6735226 16.8851022,11.3202297 16.8851022,12.1197948 L16.8851022,17.004533 L12.0020437,17.004533 C11.2024786,17.004533 10.5540917,17.6512401 10.5540917,18.452485 C10.5540917,19.2520501 11.2024786,19.8987572 12.0020437,19.8987572 L16.8851022,19.8987572 L16.8851022,24.7834954 C16.8851022,25.5830606 17.533489,26.2297677 18.3330542,26.2297677 C19.1326193,26.2297677 19.7793264,25.5830606 19.7793264,24.7818157 Z" id="Fill-54" fill="#FFFFFF"></path>
                <path d="M13.858177,58.141655 C14.2310835,58.141655 14.6006304,58.0005553 14.8828298,57.7166761 L18.3364137,54.2630922 L21.7916773,57.7166761 C22.0738767,58.0005553 22.4434236,58.141655 22.8146503,58.141655 C23.1825175,58.141655 23.5554239,57.9988755 23.8376233,57.7166761 C24.4020223,57.1522771 24.4020223,56.2368087 23.8376233,55.67073 L20.3823597,52.2171462 L23.8359436,48.7635623 C24.4003425,48.1991634 24.4003425,47.2820152 23.8359436,46.7176163 C23.2698649,46.1532173 22.3543964,46.1532173 21.7883178,46.7176163 L18.3347339,50.1728798 L14.8811501,46.719296 C14.3167512,46.1548971 13.3996029,46.1548971 12.835204,46.719296 C12.2691253,47.2836949 12.2691253,48.2008432 12.835204,48.7669218 L16.2887879,52.2171462 L12.835204,55.6724098 C12.2691253,56.2368087 12.2691253,57.1539569 12.835204,57.7183558 C13.1174035,58.0005553 13.4886301,58.141655 13.858177,58.141655 Z" id="Fill-56" fill="#FFFFFF"></path>
                <path d="M2.89590396,24.7834954 L2.8942242,3.01550277 L24.6622169,3.01382302 C25.461782,3.01382302 26.1101688,2.36711593 26.1101688,1.56587104 C26.1101688,0.766305908 25.461782,0.119598818 24.6622169,0.119598818 L1.44627222,0.121278576 C0.648386849,0.121278576 2.22044605e-13,0.769665425 2.22044605e-13,1.56923055 L0.00167975868,24.7851752 C0.00167975868,25.5847403 0.650066607,26.2314474 1.44963174,26.2314474 C2.24919687,26.2314474 2.89590396,25.5847403 2.89590396,24.7834954 Z" id="Fill-60" fill="#FFFFFF"></path>
                <g id="Group-64" transform="translate(43.673726, -0.000000)" fill="#FFFFFF">
                    <path d="M25.3069083,0.115231445 L2.09264336,0.116911204 C1.29307823,0.116911204 0.646371138,0.765298052 0.646371138,1.56486318 C0.646371138,2.36442831 1.29475799,3.0111354 2.09264336,3.0111354 L23.860636,3.00945564 L23.8623158,24.7774483 C23.8623158,25.5770134 24.5107026,26.2254003 25.3102678,26.2254003 C26.1081531,26.2254003 26.75654,25.5770134 26.75654,24.7774483 L26.7548602,1.56150366 C26.7548602,0.761938535 26.1064734,0.115231445 25.3069083,0.115231445" id="Fill-62"></path>
                </g>
                <path d="M68.9850012,44.4344883 C68.1854361,44.4344883 67.538729,45.0811954 67.538729,45.8824402 L67.5404087,67.6487532 L45.772416,67.6504329 C44.9745307,67.6504329 44.3261438,68.2988198 44.3261438,69.0983849 C44.3261438,69.89795 44.9745307,70.5446571 45.7740958,70.5446571 L68.9883607,70.5429774 C69.7862461,70.5429774 70.4346329,69.8962703 70.4346329,69.0950254 L70.4329532,45.8807605 C70.4329532,45.0811954 69.7845663,44.4344883 68.9850012,44.4344883" id="Fill-65" fill="#FFFFFF"></path>
                <path d="M24.6689359,67.6532885 L2.90094323,67.6549683 L2.89926347,45.8886553 C2.89926347,45.0890902 2.25087662,44.4407034 1.4513115,44.4407034 C0.653426125,44.4423831 0.00503927603,45.0890902 0.00503927603,45.8886553 L0.0067190347,69.1029202 C0.0067190347,69.9024854 0.655105883,70.5491925 1.45467101,70.5491925 L24.6689359,70.5475127 C25.468501,70.5475127 26.1168879,69.9008056 26.1168879,69.0995607 C26.1168879,68.2999956 25.468501,67.6532885 24.6689359,67.6532885" id="Fill-67" fill="#FFFFFF"></path>
                <path d="M62.687082,55.3886985 C62.6803629,55.9984509 62.1982722,56.5006988 61.5885198,56.4923 L61.0946708,56.4872607 C60.9586103,55.0645051 59.6903925,54.0247345 58.2676369,54.1658342 C57.0598904,54.2817375 56.0990685,55.2240822 55.9529295,56.4234299 L48.2663538,56.3293634 C48.1286135,54.9082875 46.8620755,53.8668372 45.4393199,54.0079369 C44.2315734,54.1238402 43.2690717,55.0661848 43.1246124,56.2672123 L42.8928058,56.2638528 C42.2813736,56.255454 41.8127209,55.7431276 41.8211197,55.1333752 L41.8362375,53.8063658 C41.8379173,53.3074775 42.173869,52.8774593 42.6559598,52.7497976 L46.2943171,51.8024137 C46.3934228,51.7755376 46.48245,51.7201056 46.5446011,51.6377974 L48.7484445,48.8191623 C49.0659189,48.4210595 49.5480096,48.1942921 50.0552967,48.2010111 L56.9204704,48.2849991 C57.4781503,48.2883586 58.002235,48.5772771 58.2894738,49.0560083 L59.9423563,51.7688186 C59.9877098,51.849447 60.0616192,51.9099183 60.1405678,51.9485527 L62.0756498,52.8623415 C62.4636741,53.0487947 62.7105986,53.4418582 62.70052,53.8752359 L62.6820427,55.3886985 L62.687082,55.3886985 Z M58.5212805,58.0645541 C57.9434435,58.0645541 57.4747908,57.5975812 57.4747908,57.0180644 C57.4747908,56.4402274 57.9434435,55.9715748 58.5212805,55.9715748 C59.0991174,55.9715748 59.5677701,56.4402274 59.5677701,57.0180644 C59.5677701,57.5975812 59.0991174,58.0645541 58.5212805,58.0645541 L58.5212805,58.0645541 Z M45.6912837,58.0645541 C45.1134467,58.0645541 44.644794,57.5975812 44.644794,57.0180644 C44.644794,56.4402274 45.1134467,55.9715748 45.6912837,55.9715748 C46.2691207,55.9715748 46.7377734,56.4402274 46.7377734,57.0180644 C46.7377734,57.5975812 46.2691207,58.0645541 45.6912837,58.0645541 L45.6912837,58.0645541 Z M62.7290759,51.4866191 L61.0711541,50.7055313 L59.5845677,48.2665217 C59.0268878,47.3476937 58.0106338,46.7732163 56.937268,46.7664972 L50.0737741,46.6825093 C50.0636955,46.6825093 50.0502575,46.6808295 50.0368194,46.6808295 C49.0743177,46.6808295 48.1504504,47.1293251 47.5574956,47.8835368 L45.5653018,50.4250116 L42.2746546,51.2816886 C41.1391377,51.5823654 40.3378928,52.6120574 40.322775,53.7862087 L40.3059774,55.1148978 C40.2891798,56.5258951 41.3759837,57.6966869 42.7550655,57.7789951 C43.0087091,58.4089046 43.4588844,58.9380286 44.0518392,59.2974969 C44.7758152,59.7325544 45.6324921,59.8652554 46.4538941,59.6603248 C47.4214351,59.4201193 48.2126015,58.7465361 48.6023055,57.8529045 L55.5867421,57.9385722 C56.0738721,59.1362401 57.2480234,59.9106089 58.52464,59.9106089 C58.774924,59.9106089 59.0302473,59.8803732 59.2838909,59.8182221 C60.2531117,59.5780166 61.0425982,58.9027537 61.4306225,58.009122 L61.5683627,58.0108018 C62.2570638,57.9856054 62.9289672,57.752119 63.4295353,57.2549104 C63.9217046,56.7627411 64.1988648,56.1059555 64.2072636,55.4054961 L64.2240612,53.8987526 C64.2442183,52.87242 63.6563027,51.9267159 62.7290759,51.4866191 L62.7290759,51.4866191 Z" id="Fill-69" fill="#FFFFFF"></path>
                <path d="M62.687082,55.3886985 C62.6803629,55.9984509 62.1982722,56.5006988 61.5885198,56.4923 L61.0946708,56.4872607 C60.9586103,55.0645051 59.6903925,54.0247345 58.2676369,54.1658342 C57.0598904,54.2817375 56.0990685,55.2240822 55.9529295,56.4234299 L48.2663538,56.3293634 C48.1286135,54.9082875 46.8620755,53.8668372 45.4393199,54.0079369 C44.2315734,54.1238402 43.2690717,55.0661848 43.1246124,56.2672123 L42.8928058,56.2638528 C42.2813736,56.255454 41.8127209,55.7431276 41.8211197,55.1333752 L41.8362375,53.8063658 C41.8379173,53.3074775 42.173869,52.8774593 42.6559598,52.7497976 L46.2943171,51.8024137 C46.3934228,51.7755376 46.48245,51.7201056 46.5446011,51.6377974 L48.7484445,48.8191623 C49.0659189,48.4210595 49.5480096,48.1942921 50.0552967,48.2010111 L56.9204704,48.2849991 C57.4781503,48.2883586 58.002235,48.5772771 58.2894738,49.0560083 L59.9423563,51.7688186 C59.9877098,51.849447 60.0616192,51.9099183 60.1405678,51.9485527 L62.0756498,52.8623415 C62.4636741,53.0487947 62.7105986,53.4418582 62.70052,53.8752359 L62.6820427,55.3886985 L62.687082,55.3886985 Z M58.5212805,58.0645541 C57.9434435,58.0645541 57.4747908,57.5975812 57.4747908,57.0180644 C57.4747908,56.4402274 57.9434435,55.9715748 58.5212805,55.9715748 C59.0991174,55.9715748 59.5677701,56.4402274 59.5677701,57.0180644 C59.5677701,57.5975812 59.0991174,58.0645541 58.5212805,58.0645541 Z M45.6912837,58.0645541 C45.1134467,58.0645541 44.644794,57.5975812 44.644794,57.0180644 C44.644794,56.4402274 45.1134467,55.9715748 45.6912837,55.9715748 C46.2691207,55.9715748 46.7377734,56.4402274 46.7377734,57.0180644 C46.7377734,57.5975812 46.2691207,58.0645541 45.6912837,58.0645541 Z M62.7290759,51.4866191 L61.0711541,50.7055313 L59.5845677,48.2665217 C59.0268878,47.3476937 58.0106338,46.7732163 56.937268,46.7664972 L50.0737741,46.6825093 C50.0636955,46.6825093 50.0502575,46.6808295 50.0368194,46.6808295 C49.0743177,46.6808295 48.1504504,47.1293251 47.5574956,47.8835368 L45.5653018,50.4250116 L42.2746546,51.2816886 C41.1391377,51.5823654 40.3378928,52.6120574 40.322775,53.7862087 L40.3059774,55.1148978 C40.2891798,56.5258951 41.3759837,57.6966869 42.7550655,57.7789951 C43.0087091,58.4089046 43.4588844,58.9380286 44.0518392,59.2974969 C44.7758152,59.7325544 45.6324921,59.8652554 46.4538941,59.6603248 C47.4214351,59.4201193 48.2126015,58.7465361 48.6023055,57.8529045 L55.5867421,57.9385722 C56.0738721,59.1362401 57.2480234,59.9106089 58.52464,59.9106089 C58.774924,59.9106089 59.0302473,59.8803732 59.2838909,59.8182221 C60.2531117,59.5780166 61.0425982,58.9027537 61.4306225,58.009122 L61.5683627,58.0108018 C62.2570638,57.9856054 62.9289672,57.752119 63.4295353,57.2549104 C63.9217046,56.7627411 64.1988648,56.1059555 64.2072636,55.4054961 L64.2240612,53.8987526 C64.2442183,52.87242 63.6563027,51.9267159 62.7290759,51.4866191 Z" id="Stroke-71" stroke="#FFFFFF" stroke-width="0.3"></path>
                <path d="M59.1955967,19.975764 C60.038199,19.975764 60.7197156,19.2942474 60.7197156,18.4498749 C60.7197156,17.6072726 60.0364288,16.925756 59.1955967,16.925756 L45.8520329,16.9275262 C45.0094306,16.9275262 44.3261438,17.6090428 44.3261438,18.4516451 C44.3261438,19.2942474 45.0094306,19.9775342 45.8520329,19.9775342 L59.1955967,19.975764 Z" id="Fill-58" fill="#FFFFFF"></path>
            </g>
        </g>
    </g>
</svg>